<svg xmlns="http://www.w3.org/2000/svg" viewBox="0 0 181.59 42.56"><defs><style>.cls-1{fill:none;stroke:#010101;stroke-miterlimit:10;stroke-width:3.53px;}.cls-2{fill:#25b6c1;}.cls-3{fill:#010101;}</style></defs><title>Asset 5</title><g id="Layer_2" data-name="Layer 2"><g id="Слой_1" data-name="Слой 1"><path class="cls-1" d="M93.75,35.3a48.22,48.22,0,0,1,68.23,0"/><path class="cls-1" d="M179.83,11.18a21.17,21.17,0,0,1-21.18,21.18"/><path class="cls-1" d="M172,5.69A21.17,21.17,0,0,1,150.8,26.87"/><path class="cls-1" d="M162.37,1.76a21.17,21.17,0,0,1-21.18,21.18"/><path class="cls-1" d="M147.27,0a21.17,21.17,0,0,1-21.18,21.18"/><path class="cls-1" d="M87.85,35.3a48.22,48.22,0,0,0-68.23,0"/><path class="cls-1" d="M1.76,11.18A21.17,21.17,0,0,0,22.94,32.36"/><path class="cls-1" d="M9.61,5.69A21.17,21.17,0,0,0,30.79,26.87"/><path class="cls-1" d="M19.22,1.76A21.17,21.17,0,0,0,40.4,22.94"/><path class="cls-1" d="M34.32,0A21.17,21.17,0,0,0,55.5,21.18"/><circle class="cls-2" cx="52.75" cy="32.75" r="9.81"/><circle class="cls-3" cx="52.75" cy="32.75" r="4.56"/><circle class="cls-2" cx="128.25" cy="32.75" r="9.81"/><circle class="cls-3" cx="128.25" cy="32.75" r="4.56"/></g></g></svg>