<svg xmlns="http://www.w3.org/2000/svg" viewBox="0 0 98.47 69.73"><defs><style>.cls-1{fill:#e94b46;}.cls-2{fill:none;stroke:#010101;stroke-miterlimit:10;stroke-width:3.75px;}</style></defs><title>Asset 4</title><g id="Layer_2" data-name="Layer 2"><g id="Слой_1" data-name="Слой 1"><path class="cls-1" d="M97.87,34.86h0a17.43,17.43,0,0,1-17.4-17.38s0,0,0-.05A17.43,17.43,0,0,0,48.95,7.16,17.43,17.43,0,0,0,17.43,17.43,17.43,17.43,0,0,1,0,34.86H0a17.43,17.43,0,0,1,17.4,17.38s0,0,0,.05A17.43,17.43,0,0,0,48.94,62.57,17.43,17.43,0,0,0,80.46,52.3a17.43,17.43,0,0,1,17.4-17.43h0Z"/><path class="cls-2" d="M.84,34.41H35.37c3.1,0,8.23,2.82,11.4,7.16a17.41,17.41,0,0,1,14.08-7.16H98.47"/><rect class="cls-1" x="34.53" y="58.67" width="28.83" height="11.06"/></g></g></svg>