<svg xmlns="http://www.w3.org/2000/svg" viewBox="0 0 301.28 112.68"><defs><style>.cls-1{fill:#c39dc8;}.cls-1,.cls-2,.cls-3{stroke:#596bb1;stroke-miterlimit:10;}.cls-1,.cls-2{stroke-width:7.71px;}.cls-2,.cls-3{fill:none;}.cls-3{stroke-width:4.94px;}</style></defs><title>Asset 6</title><g id="Layer_2" data-name="Layer 2"><g id="Слой_1" data-name="Слой 1"><path class="cls-1" d="M96.84,106.39,57.61,55.9A20.3,20.3,0,1,1,92.78,35.6l4.07,7,4.07-7a20.3,20.3,0,1,1,35.16,20.3Z"/><path class="cls-1" d="M204.44,106.39,165.21,55.9a20.3,20.3,0,1,1,35.16-20.3l4.07,7,4.07-7a20.3,20.3,0,1,1,35.16,20.3Z"/><path class="cls-2" d="M137.65,49.83a18.36,18.36,0,0,1,26,0"/><path class="cls-3" d="M6.16,22.4A11.53,11.53,0,0,1,5.5,6.16h0A11.53,11.53,0,0,1,21.74,5.5L55.83,36.91"/><path class="cls-3" d="M295.12,22.4a11.53,11.53,0,0,0,.66-16.24h0a11.53,11.53,0,0,0-16.24-.66L245.45,36.91"/></g></g></svg>