<svg xmlns="http://www.w3.org/2000/svg" viewBox="0 0 42.42 189.58"><defs><style>.cls-1{fill:#fa953c;}.cls-2{fill:#00a697;}</style></defs><title>Asset 6</title><g id="Layer_2" data-name="Layer 2"><g id="Слой_1" data-name="Слой 1"><path class="cls-1" d="M21.21,34.26,4.61,12.89A8.59,8.59,0,1,1,19.49,4.3l1.72,3,1.72-3a8.59,8.59,0,1,1,14.88,8.59Z"/><path class="cls-1" d="M21.21,47.95,4.61,26.58A8.59,8.59,0,1,1,19.49,18l1.72,3,1.72-3a8.59,8.59,0,1,1,14.88,8.59Z"/><path class="cls-1" d="M21.21,61.63,4.61,40.26a8.59,8.59,0,1,1,14.88-8.59l1.72,3,1.72-3a8.59,8.59,0,1,1,14.88,8.59Z"/><path class="cls-1" d="M21.21,75.32,4.61,54a8.59,8.59,0,1,1,14.88-8.59l1.72,3,1.72-3A8.59,8.59,0,1,1,37.81,54Z"/><path class="cls-1" d="M21.21,89,4.61,67.64A8.59,8.59,0,1,1,19.49,59l1.72,3,1.72-3a8.59,8.59,0,1,1,14.88,8.59Z"/><path class="cls-1" d="M21.21,102.7,4.61,81.33a8.59,8.59,0,1,1,14.88-8.59l1.72,3,1.72-3a8.59,8.59,0,1,1,14.88,8.59Z"/><path class="cls-1" d="M21.21,116.38,4.61,95a8.59,8.59,0,1,1,14.88-8.59l1.72,3,1.72-3A8.59,8.59,0,1,1,37.81,95Z"/><path class="cls-1" d="M21.21,130.07,4.61,108.7a8.59,8.59,0,1,1,14.88-8.59l1.72,3,1.72-3a8.59,8.59,0,1,1,14.88,8.59Z"/><path class="cls-1" d="M21.21,127.65a43.77,43.77,0,0,0,0,61.93A43.77,43.77,0,0,0,21.21,127.65Z"/><polygon class="cls-2" points="29.45 129.22 0 146.22 0 112.21 29.45 129.22"/><polygon class="cls-2" points="12.96 129.22 42.42 112.21 42.42 146.22 12.96 129.22"/></g></g></svg>