<svg id="Слой_1" data-name="Слой 1" xmlns="http://www.w3.org/2000/svg" xmlns:xlink="http://www.w3.org/1999/xlink" viewBox="0 0 263.43 353.49">
  <defs>
    <style>
      .cls-1 {
        fill: none;
      }
      .cls-2 {
        fill: #fff;
        stroke: #000;
        stroke-miterlimit: 10;
      }
      .cls-3 {
        clip-path: url("#clip-path");
      }
      .cls-4 {
        clip-path: url("#clip-path-2");
      }
      .cls-5 {
        fill: #231300;
      }
      .cls-6 {
        fill: #cdcdcd;
      }
      .cls-7 {
        clip-path: url("#clip-path-3");
      }
      .cls-8 {
        fill: #6fc055;
      }
      .cls-9 {
        fill: #f24943;
      }
      .cls-10 {
        fill: #586ab1;
      }
    </style>
    <clipPath id="clip-path"><rect class="cls-1" x="-391.33" y="-453.93" width="258.33" height="330.88"/></clipPath>
    <clipPath id="clip-path-2"><rect class="cls-1" x="3.04" y="-466.78" width="258.33" height="343.1"/></clipPath>
    <clipPath id="clip-path-3"><rect class="cls-1" x="5.09" y="23.02" width="258.33" height="330.47"/></clipPath>
  </defs>
  <g class="cls-4"><rect class="cls-5" x="29.03" y="66.2" width="56.11" height="403.3" transform="translate(93.08 -3.64) rotate(19.58)"/><rect class="cls-5" x="186.2" y="57.91" width="56.11" height="403.3"/><path class="cls-6" d="M288.69-167.12c0-64.94-53.13-118.07-118.07-118.07h0c-64.94,0-118.07,53.13-118.07,118.07V91.22H288.69Z"/></g>
  <g class="cls-7"><path class="cls-8" d="M133.21,204.78a39.12,39.12,0,0,1-33.88-19.56l-43.53-75.4A39.13,39.13,0,0,1,89.68,51.13h87.07a39.13,39.13,0,0,1,33.88,58.69l-43.53,75.4A39.13,39.13,0,0,1,133.21,204.78Z"/><path class="cls-9" d="M133.21,182.67a2.83,2.83,0,0,1-2.45-1.41l-3.15-5.45a2.83,2.83,0,0,1,2.45-4.24h6.29a2.83,2.83,0,0,1,2.45,4.24l-3.15,5.45A2.83,2.83,0,0,1,133.21,182.67Z"/><path d="M75.74,78a52.14,52.14,0,0,0,52.17,52.17A52.14,52.14,0,0,0,75.74,78Z"/><path d="M190.68,78a52.14,52.14,0,0,0-52.17,52.17A52.14,52.14,0,0,0,190.68,78Z"/><circle cx="127.3" cy="150.31" r="2.49"/><circle cx="139.15" cy="150.31" r="2.49"/><circle class="cls-10" cx="102.4" cy="104.74" r="15.32"/><circle cx="102.4" cy="104.74" r="7.21"/><circle class="cls-10" cx="164.08" cy="104.74" r="15.32"/><circle cx="164.08" cy="104.74" r="4.75"/><ellipse class="cls-8" cx="133.21" cy="336.9" rx="50.36" ry="139.24"/><rect class="cls-8" x="84.66" y="332.98" width="9.88" height="264.65"/><rect class="cls-8" x="172.55" y="332.98" width="9.88" height="264.65"/></g>
</svg>
