<svg xmlns="http://www.w3.org/2000/svg" viewBox="0 0 65.21 48.56">
  <defs>
    <style>
      .cls-1 {
        fill: #4c4c4c;
      }
      .cls-3 {
        fill: #fff;
      }
      .cls-4 {
        fill: #f24943;
      }
      .cls-5 {
        fill: #9a9b9b;
      }
      .cls-6 {
        fill: #00bcc5;
      }
    </style>
  </defs>
  <title>Asset 1</title>
  <g id="Layer_2" data-name="Layer 2">
    <g id="Слой_2" data-name="Слой 2"><ellipse cx="17.34" cy="34.36" rx="7.49" ry="12.16"/><polygon class="cls-1" points="14.11 43.03 13.8 41.13 14.41 41.13 14.11 43.03"/><polygon class="cls-1" points="15.1 43.03 14.79 41.13 15.41 41.13 15.1 43.03"/><polygon class="cls-1" points="16.09 43.03 15.78 41.13 16.4 41.13 16.09 43.03"/><circle class="cls-1" cx="14.56" cy="37.34" r="0.28"/><circle class="cls-1" cx="15.63" cy="37.34" r="0.28"/><rect x="25.46" y="40.25" width="22.9" height="4.57" rx="2.28" ry="2.28"/><rect x="25.46" y="41.92" width="1.18" height="6.64" rx="0.59" ry="0.59"/><rect x="26.89" y="41.92" width="1.18" height="6.64" rx="0.59" ry="0.59"/><rect x="28.32" y="41.92" width="1.18" height="6.64" rx="0.59" ry="0.59"/><rect x="29.75" y="40.44" width="1.18" height="6.02" rx="0.59" ry="0.59"/><ellipse class="cls-2" cx="53.35" cy="44.91" rx="6.72" ry="1.08" transform="translate(-6.87 9.74) rotate(-9.81)"/><rect class="cls-2" x="56.13" y="34.11" width="4.01" height="12.43" transform="translate(116.27 80.65) rotate(180)"/><path class="cls-3" d="M11,34.25a2.6,2.6,0,0,0,3.68,0A2.6,2.6,0,0,0,11,34.25Z"/><circle class="cls-4" cx="12.87" cy="34.25" r="0.78"/><path class="cls-3" d="M15.49,34.25a2.6,2.6,0,0,0,3.68,0A2.6,2.6,0,0,0,15.49,34.25Z"/><circle class="cls-4" cx="17.32" cy="34.25" r="0.78"/><rect class="cls-3" x="31.19" y="-5.78" width="2.93" height="60.6" transform="translate(57.17 -8.14) rotate(90)"/><rect class="cls-3" x="31.14" y="-8.63" width="2.93" height="60.6" transform="translate(54.27 -10.94) rotate(90)"/><path class="cls-3" d="M3.45,3.95A16.4,16.4,0,0,0,19.86,20.36,16.4,16.4,0,0,0,3.45,3.95Z"/><circle class="cls-5" cx="1.95" cy="1.95" r="1.95"/><rect class="cls-5" x="0.55" y="3.75" width="2.93" height="42.79"/><rect class="cls-5" x="31.14" y="-2.84" width="2.93" height="60.6" transform="translate(60.07 -5.14) rotate(90)"/><rect class="cls-5" x="62.28" y="9" width="2.93" height="37.54"/><rect class="cls-6" x="30.31" y="10.15" width="23.39" height="40.59" transform="translate(72.45 -11.56) rotate(90)"/></g>
  </g>
</svg>
