<svg xmlns="http://www.w3.org/2000/svg" xmlns:xlink="http://www.w3.org/1999/xlink" viewBox="0 0 103.46 200.7"><defs><style>.cls-1{fill:none;}.cls-2{fill:#b7e3ee;}.cls-3{fill:#fff;}.cls-4{fill:#231300;}.cls-5{clip-path:url(#clip-path);}.cls-6{fill:#f24943;}</style><clipPath id="clip-path"><ellipse class="cls-1" cx="51.73" cy="60.39" rx="11.18" ry="24.44"/></clipPath></defs><title>Asset 6</title><g id="Layer_2" data-name="Layer 2"><g id="Слой_1" data-name="Слой 1"><path class="cls-2" d="M51.73,0C23.16,0,0,88,0,196.62q0,2,0,4.06l.37,0c8.6,0,8.6-19.35,17.19-19.35s8.6,19.35,17.19,19.35,8.6-19.35,17.19-19.35,8.6,19.35,17.2,19.35,8.6-19.35,17.2-19.35,8.6,19.17,17.08,19.34q0-2,0-4.07C103.46,88,80.3,0,51.73,0Z"/><circle cx="44.39" cy="25.92" r="4.25"/><path class="cls-3" d="M44.39,23.16a2.76,2.76,0,1,1-2.76,2.76,2.76,2.76,0,0,1,2.76-2.76m0-3a5.74,5.74,0,1,0,5.74,5.74,5.74,5.74,0,0,0-5.74-5.74Z"/><circle cx="59.07" cy="25.92" r="4.25"/><path class="cls-3" d="M59.07,23.16a2.76,2.76,0,1,1-2.76,2.76,2.76,2.76,0,0,1,2.76-2.76m0-3a5.74,5.74,0,1,0,5.74,5.74,5.74,5.74,0,0,0-5.74-5.74Z"/><ellipse class="cls-4" cx="51.73" cy="60.39" rx="11.18" ry="24.44"/><g class="cls-5"><path class="cls-6" d="M64.05,53.93a4.75,4.75,0,1,0-8.39,3l.08.12a4.22,4.22,0,0,1,.6,2.32,4.75,4.75,0,0,1-9.49,0,4.54,4.54,0,0,1,.81-2.59l.09-.12a4.75,4.75,0,1,0-8.6-2.77s-1.49-4.18-.17-5.51,6.74-13.23,6.74-13.23l11.05-1.54L61.69,46.5,65,50.08Z"/></g><g class="cls-5"><rect class="cls-3" x="48.01" y="35.07" width="3.25" height="6.61"/><rect class="cls-3" x="52.2" y="35.07" width="3.25" height="6.61"/></g></g></g></svg>