<svg xmlns="http://www.w3.org/2000/svg" viewBox="0 0 176.36 200.97"><defs><style>.cls-1{fill:#ffd7a5;}.cls-2{fill:#e1b285;}.cls-3{fill:#b48d69;}.cls-4{fill:none;}.cls-5{fill:#f24943;}.cls-6{fill:#fff;}</style></defs><title>Asset 2</title><g id="Layer_2" data-name="Layer 2"><g id="Слой_1" data-name="Слой 1"><path class="cls-1" d="M150.13,105.32c-2.57,0-2.57,2.9-5.14,2.9s-2.57-2.9-5.14-2.9-2.57,2.9-5.14,2.9-2.57-2.9-5.13-2.9-2.57,2.9-5.13,2.9-2.57-2.9-5.13-2.9-2.57,2.9-5.13,2.9-2.57-2.9-5.13-2.9v5.77c2.57,0,2.57,2.9,5.13,2.9s2.57-2.9,5.13-2.9,2.57,2.9,5.13,2.9,2.57-2.9,5.13-2.9,2.57,2.9,5.13,2.9,2.57-2.9,5.14-2.9,2.57,2.9,5.14,2.9,2.57-2.9,5.14-2.9Z"/><path class="cls-1" d="M77.13,54c-2.57,0-2.57,2.9-5.14,2.9S69.43,54,66.86,54s-2.57,2.9-5.14,2.9S59.15,54,56.59,54s-2.57,2.9-5.13,2.9S48.89,54,46.32,54s-2.57,2.9-5.13,2.9S38.62,54,36.05,54v5.77c2.57,0,2.57,2.9,5.13,2.9s2.57-2.9,5.13-2.9,2.57,2.9,5.13,2.9,2.57-2.9,5.13-2.9,2.57,2.9,5.13,2.9,2.57-2.9,5.14-2.9,2.57,2.9,5.14,2.9,2.57-2.9,5.14-2.9Z"/><path class="cls-2" d="M57,172c-1.56,0-1.56,1.77-3.13,1.77S52.32,172,50.76,172s-1.56,1.77-3.13,1.77S46.07,172,44.5,172s-1.56,1.77-3.13,1.77S39.81,172,38.25,172s-1.56,1.77-3.13,1.77S33.56,172,32,172v3.51c1.56,0,1.56,1.77,3.13,1.77s1.56-1.77,3.13-1.77,1.56,1.77,3.13,1.77,1.56-1.77,3.13-1.77,1.56,1.77,3.12,1.77,1.56-1.77,3.13-1.77,1.56,1.77,3.13,1.77,1.56-1.77,3.13-1.77Z"/><path class="cls-2" d="M117.2,3C115.59,3,115.59,4.8,114,4.8S112.38,3,110.78,3s-1.6,1.81-3.21,1.81S106,3,104.36,3s-1.6,1.81-3.21,1.81S99.55,3,97.95,3,96.34,4.8,94.74,4.8,93.14,3,91.53,3v3.6c1.6,0,1.6,1.81,3.21,1.81s1.6-1.81,3.21-1.81,1.6,1.81,3.21,1.81,1.6-1.81,3.21-1.81S106,8.4,107.57,8.4s1.6-1.81,3.21-1.81S112.38,8.4,114,8.4s1.61-1.81,3.21-1.81Z"/><circle class="cls-3" cx="72.96" cy="23.47" r="4.86"/><circle class="cls-2" cx="103.05" cy="23.47" r="4.86"/><path class="cls-4" d="M101.46,11.32l-.74-.18.13.33Z"/><path class="cls-1" d="M73.56,33.19l27.27,5.37a34.94,34.94,0,0,0,2.09-8.2L73.16,31Q73.33,32.1,73.56,33.19Z"/><path class="cls-1" d="M88,50c4.47,0,8.48-3.14,11.28-8.13L76,40.46C78.8,46.27,83.13,50,88,50Z"/><path class="cls-2" d="M73.16,31l29.77-.6a40.49,40.49,0,0,0,.36-5.36,39.89,39.89,0,0,0-.68-7.41L72.87,28.49Q73,29.75,73.16,31Z"/><path class="cls-1" d="M88,0c-3.7,0-7.09,2.15-9.73,5.73l22.45,5.41C98,4.42,93.31,0,88,0Z"/><path class="cls-2" d="M100.72,11.14,78.27,5.73a29.74,29.74,0,0,0-5,12.72l27.6-7Z"/><path d="M100.84,38.57,73.56,33.19l.09.4L100,40.43Q100.46,39.53,100.84,38.57Z"/><path class="cls-2" d="M73.66,33.6A31.93,31.93,0,0,0,76,40.46l23.28,1.41c.26-.46.51-.94.74-1.44Z"/><path class="cls-1" d="M73.26,18.45A40.14,40.14,0,0,0,72.72,25c0,1.19.05,2.35.15,3.49l20-7.34L77,17.5Z"/><path d="M100.85,11.47,77,17.5,92.9,21.15l9.7-3.56A33.91,33.91,0,0,0,100.85,11.47Z"/><circle class="cls-5" cx="81.66" cy="17.45" r="1.89"/><circle cx="81.66" cy="17.45" r="0.93"/><circle class="cls-5" cx="94.06" cy="17.45" r="1.89"/><circle cx="94.06" cy="17.45" r="0.93"/><polygon class="cls-6" points="90.73 39.5 88.43 39.5 88.43 36.12 90.73 36.57 90.73 39.5"/><path class="cls-1" d="M122.94,84.8v-.61c0-.44,0-.88,0-1.33h-4.44Z"/><path class="cls-2" d="M62.17,153.35,89.55,148l-27.47-6.36a4.53,4.53,0,0,1,.09.88Z"/><polygon class="cls-1" points="62.17 155.98 113.99 155.98 113.99 153.64 89.55 147.98 62.17 153.35 62.17 155.98"/><path class="cls-1" d="M105.72,54.11A34.64,34.64,0,0,0,88,49.25h0a34.81,34.81,0,0,0-24.26,9.87L73.9,63.53Z"/><polygon class="cls-1" points="113.99 143.19 89.55 147.98 113.99 153.64 113.99 143.19"/><polygon class="cls-1" points="122.94 101.02 122.94 95.19 53.07 108.22 53.07 114.62 82.04 116.16 122.94 101.02"/><polygon class="cls-3" points="53.07 85.86 53.07 98.46 89.3 89.23 53.07 85.86"/><polygon class="cls-2" points="122.94 92.37 89.3 89.23 53.07 98.46 53.07 108.22 122.94 95.19 122.94 92.37"/><polygon class="cls-1" points="53.07 114.62 53.07 126.89 82.04 116.16 53.07 114.62"/><path class="cls-1" d="M57.62,137.95a4.56,4.56,0,0,1,4.23,2.89l45.95-7.78-54.73.45v6l.94.22A4.55,4.55,0,0,1,57.62,137.95Z"/><polygon class="cls-1" points="122.94 132.94 122.94 130.5 107.8 133.06 122.94 132.94"/><polygon class="cls-3" points="53.07 126.89 53.07 133.51 107.8 133.06 122.94 130.5 122.94 118.33 82.04 116.16 53.07 126.89"/><rect class="cls-2" x="53.07" y="155.14" height="0.84"/><polygon class="cls-2" points="82.04 116.16 122.94 118.33 122.94 102.4 119.73 109.45 122.94 102.4 122.94 101.02 82.04 116.16"/><polygon class="cls-3" points="114.34 82.86 89.3 89.23 122.94 92.37 122.94 84.8 118.47 82.86 114.34 82.86"/><path class="cls-1" d="M57.45,67.31h3.66L73.9,63.53,63.74,59.12A35.28,35.28,0,0,0,57.45,67.31Z"/><path class="cls-2" d="M61.85,140.84a4.5,4.5,0,0,1,.23.78L89.55,148,114,143.19v-.69a4.55,4.55,0,0,1,9-1.14v-8.42l-15.14.12Z"/><path class="cls-2" d="M53.07,142.5c0-.06,0-.12,0-.18h0v12.81h0Z"/><path class="cls-1" d="M54,139.74l-.94-.22v2.8h0A4.52,4.52,0,0,1,54,139.74Z"/><polygon class="cls-3" points="62.17 178.44 53.07 174.49 53.07 189.21 62.17 187.14 62.17 178.44"/><path class="cls-2" d="M53.07,189.21v2.65h2.75a4.52,4.52,0,0,1,2.63.85l3.72-1.38v-4.19Z"/><polygon class="cls-2" points="62.17 170.07 53.07 171.61 53.07 174.49 62.17 178.44 62.17 170.07"/><path class="cls-1" d="M60.37,196.42a4.57,4.57,0,0,1-3.65,4.46,4.55,4.55,0,0,0,5.45-4.46v-5.08l-3.72,1.38A4.55,4.55,0,0,1,60.37,196.42Z"/><polygon class="cls-3" points="62.17 155.98 53.07 155.98 53.07 165.61 62.17 166.45 62.17 155.98"/><polygon class="cls-1" points="62.17 166.45 53.07 165.61 53.07 171.61 62.17 170.07 62.17 166.45"/><path class="cls-2" d="M53.08,142.32c0,.06,0,.12,0,.18v12.64l9.1-1.79V142.5a4.53,4.53,0,0,0-.09-.88l-2-.47Z"/><path class="cls-2" d="M62.08,141.62a4.5,4.5,0,0,0-.23-.78l-1.81.31Z"/><polygon class="cls-1" points="62.17 153.35 53.07 155.13 53.07 155.98 62.17 155.98 62.17 153.35"/><path class="cls-1" d="M54,139.74a4.52,4.52,0,0,0-.93,2.58l7-1.18Z"/><path class="cls-1" d="M57.62,137.95a4.55,4.55,0,0,0-3.61,1.8l6,1.4,1.81-.31A4.56,4.56,0,0,0,57.62,137.95Z"/><path class="cls-1" d="M53.07,196.42v-1.71l-16.85,6.24.4,0h19.2a4.53,4.53,0,0,0,.9-.09A4.57,4.57,0,0,1,53.07,196.42Z"/><path class="cls-2" d="M53.07,191.87H36.61a4.55,4.55,0,0,0-.4,9.08l16.85-6.24Z"/><path class="cls-1" d="M60.37,196.42a4.55,4.55,0,0,0-1.92-3.7l-5.38,2v1.71a4.57,4.57,0,0,0,3.65,4.46A4.57,4.57,0,0,0,60.37,196.42Z"/><path class="cls-2" d="M58.45,192.72a4.52,4.52,0,0,0-2.63-.85H53.07v2.84Z"/><polygon class="cls-2" points="113.99 175.38 123.09 173.31 123.09 172.13 113.99 171.28 113.99 175.38"/><polygon class="cls-2" points="122.94 155.98 113.99 155.98 113.99 161.3 123.09 159.76 123.09 155.75 122.94 155.71 122.94 155.98"/><path class="cls-1" d="M114,191.87h2.75a4.55,4.55,0,0,1,.9,9,4.55,4.55,0,0,0,5.45-4.46V173.31l-9.1,2.07Z"/><polygon class="cls-1" points="113.99 171.28 123.09 172.13 123.09 159.76 113.99 161.3 113.99 171.28"/><path class="cls-2" d="M122.94,155.71l.15,0V142.5a4.51,4.51,0,0,0-.13-1.07h0Z"/><path class="cls-2" d="M123,141.43l0-.07v.07Z"/><polygon class="cls-1" points="122.94 155.71 122.94 141.43 113.99 143.19 113.99 153.64 122.94 155.71"/><path class="cls-2" d="M118.54,137.95A4.56,4.56,0,0,0,114,142.5v.69l9-1.76v-.07A4.57,4.57,0,0,0,118.54,137.95Z"/><polygon class="cls-1" points="113.99 155.98 122.94 155.98 122.94 155.71 113.99 153.64 113.99 155.98"/><path class="cls-3" d="M93,196.42A4.56,4.56,0,0,0,97.53,201h16.58L95,192.66A4.55,4.55,0,0,0,93,196.42Z"/><path class="cls-1" d="M114,196.42v-4.55H97.53a4.52,4.52,0,0,0-2.56.8l19.14,8.3h2.62a4.53,4.53,0,0,0,.9-.09A4.57,4.57,0,0,1,114,196.42Z"/><path class="cls-1" d="M121.29,196.42a4.56,4.56,0,0,0-4.55-4.55H114v4.55a4.57,4.57,0,0,0,3.65,4.46A4.57,4.57,0,0,0,121.29,196.42Z"/><polygon class="cls-2" points="26.75 67.31 24.67 82.86 37.21 82.86 33.9 67.31 26.75 67.31"/><path class="cls-2" d="M52.52,69.85l4.25-1.26c.22-.43.44-.86.68-1.28H51.67l-6,15.55H53.1a34.59,34.59,0,0,1,3.67-14.26Z"/><polygon class="cls-2" points="8.65 67.31 10.96 82.86 15.11 82.86 22.21 67.31 8.65 67.31"/><polygon class="cls-1" points="33.9 67.31 37.21 82.86 45.62 82.86 51.67 67.31 33.9 67.31"/><polygon class="cls-1" points="22.21 67.31 15.11 82.86 24.67 82.86 26.75 67.31 22.21 67.31"/><path class="cls-3" d="M7.77,67.31a7.77,7.77,0,0,0,0,15.55H11L8.65,67.31Z"/><path class="cls-2" d="M56.77,68.59l4.34-1.28H57.45C57.21,67.73,57,68.16,56.77,68.59Z"/><polygon class="cls-1" points="138.95 67.31 134.16 77.81 136.54 77.2 134.16 77.81 131.86 82.86 142.54 82.86 144.62 67.31 138.95 67.31"/><polygon class="cls-2" points="129.26 79.06 129.82 82.86 131.86 82.86 134.16 77.81 129.26 79.06"/><polygon class="cls-2" points="134.16 77.81 138.95 67.31 127.51 67.31 129.26 79.06 134.16 77.81"/><path class="cls-1" d="M168.58,67.31H153l3.31,15.55h6.3l6-15.55Z"/><path class="cls-2" d="M168.64,67.31l-6,15.55h6a7.77,7.77,0,0,0,.06-15.55Z"/><path class="cls-1" d="M122.77,80.71l6.49-1.65-1.75-11.75h-9A34.62,34.62,0,0,1,122.77,80.71Z"/><polygon class="cls-3" points="144.62 67.31 142.54 82.86 156.29 82.86 152.98 67.31 144.62 67.31"/><path class="cls-1" d="M122.91,82.86h6.91l-.56-3.8-6.49,1.65C122.84,81.42,122.88,82.14,122.91,82.86Z"/><polygon class="cls-1" points="116.94 82.19 114.34 82.86 118.47 82.86 116.94 82.19"/><path class="cls-1" d="M116.94,82.2l1.53.66h4.44c0-.72-.07-1.44-.14-2.14Z"/><path class="cls-2" d="M105.72,54.11,73.9,63.53,61.11,67.31l-4.34,1.28A34.59,34.59,0,0,0,53.1,82.86v0l65.42-15.65A35.33,35.33,0,0,0,105.72,54.11Z"/><path class="cls-1" d="M118.56,67.31l0-.07L53.1,82.89c0,.43,0,.86,0,1.29v1.68L89.3,89.24l25-6.38,2.6-.66,5.82-1.48A34.62,34.62,0,0,0,118.56,67.31Z"/></g></g></svg>