<svg id="Слой_1" data-name="Слой 1" xmlns="http://www.w3.org/2000/svg" xmlns:xlink="http://www.w3.org/1999/xlink" viewBox="0 0 264 354">
  <defs>
    <style>
      .cls-1,
      .cls-9 {
        fill: none;
      }
      .cls-2,
      .cls-4 {
        fill: #fff;
      }
      .cls-2,
      .cls-9 {
        stroke: #000;
        stroke-miterlimit: 10;
      }
      .cls-3 {
        clip-path: url("#clip-path");
      }
      .cls-5 {
        fill: #f24942;
      }
      .cls-6 {
        fill: #231300;
      }
      .cls-7 {
        clip-path: url("#clip-path-2");
      }
      .cls-8 {
        clip-path: url("#clip-path-3");
      }
      .cls-9 {
        stroke-width: 2.5px;
      }
    </style>
    <clipPath id="clip-path"><rect class="cls-1" x="5.67" y="23.12" width="258.33" height="330.88"/></clipPath>
    <clipPath id="clip-path-2"><rect class="cls-1" x="400.04" y="10.26" width="258.33" height="343.1"/></clipPath>
    <clipPath id="clip-path-3"><rect class="cls-1" x="-1.44" y="476.83" width="266.33" height="356.2"/></clipPath>
  </defs>
  <g class="cls-3">
    <ellipse class="cls-4" cx="134.88" cy="99.36" rx="89.2" ry="67.38"/><rect class="cls-4" x="78.26" y="127.51" width="113.24" height="63.9"/><rect class="cls-4" x="78.26" y="201.53" width="113.24" height="28.52"/><circle cx="105.38" cy="98.35" r="25.31"/><circle cx="164.37" cy="98.35" r="25.31"/><circle class="cls-5" cx="171.81" cy="90.13" r="10.09"/><circle class="cls-5" cx="107.77" cy="108.6" r="10.09"/><polygon class="cls-6" points="134.88 123.7 147.3 145.22 159.73 166.75 134.88 166.75 110.03 166.75 122.45 145.22 134.88 123.7"/><rect class="cls-6" x="88.17" y="175.28" width="10.75" height="10.75"/><rect class="cls-6" x="104.7" y="175.28" width="10.75" height="10.75"/><rect class="cls-6" x="121.23" y="175.28" width="10.75" height="10.75"/><rect class="cls-6" x="137.76" y="175.28" width="10.75" height="10.75"/><rect class="cls-6" x="154.3" y="175.28" width="10.75" height="10.75"/><rect class="cls-6" x="170.83" y="175.28" width="10.75" height="10.75"/><rect class="cls-6" x="88.17" y="210.41" width="10.75" height="10.75"/><rect class="cls-6" x="104.7" y="210.41" width="10.75" height="10.75"/><rect class="cls-6" x="121.23" y="210.41" width="10.75" height="10.75"/><rect class="cls-6" x="137.76" y="210.41" width="10.75" height="10.75"/><rect class="cls-6" x="154.3" y="210.41" width="10.75" height="10.75"/><rect class="cls-6" x="170.83" y="210.41" width="10.75" height="10.75"/><rect class="cls-4" x="34.93" y="259.63" width="200.62" height="21.55"/><rect class="cls-4" x="34.93" y="296.1" width="200.62" height="21.55"/><rect class="cls-4" x="34.93" y="332.58" width="200.62" height="21.55"/></g>
  <g class="cls-8"><line class="cls-9" x1="131.28" y1="106.36" x2="131.28" y2="551"/></g>
</svg>
