<svg xmlns="http://www.w3.org/2000/svg" viewBox="0 0 173.03 222.79"><defs><style>.cls-1{fill:#fff;}.cls-2{fill:#231300;}.cls-3{fill:#f24942;}</style></defs><title>Asset 4</title><g id="Layer_2" data-name="Layer 2"><g id="Слой_1" data-name="Слой 1"><ellipse class="cls-1" cx="70.77" cy="20.32" rx="26.9" ry="20.32"/><rect class="cls-1" x="53.7" y="28.81" width="34.15" height="19.27"/><rect class="cls-1" x="53.7" y="51.13" width="34.15" height="8.6"/><circle class="cls-2" cx="61.88" cy="20.02" r="7.63"/><circle class="cls-2" cx="79.66" cy="20.02" r="7.63"/><circle class="cls-3" cx="81.91" cy="17.54" r="3.04"/><circle class="cls-3" cx="62.6" cy="23.1" r="3.04"/><polygon class="cls-2" points="70.77 27.66 74.52 34.15 78.27 40.64 70.77 40.64 63.28 40.64 67.02 34.15 70.77 27.66"/><rect class="cls-2" x="56.68" y="43.21" width="3.24" height="3.24"/><rect class="cls-2" x="61.67" y="43.21" width="3.24" height="3.24"/><rect class="cls-2" x="66.66" y="43.21" width="3.24" height="3.24"/><rect class="cls-2" x="71.64" y="43.21" width="3.24" height="3.24"/><rect class="cls-2" x="76.63" y="43.21" width="3.24" height="3.24"/><rect class="cls-2" x="81.61" y="43.21" width="3.24" height="3.24"/><rect class="cls-2" x="56.68" y="53.81" width="3.24" height="3.24"/><rect class="cls-2" x="61.67" y="53.81" width="3.24" height="3.24"/><rect class="cls-2" x="66.66" y="53.81" width="3.24" height="3.24"/><rect class="cls-2" x="71.64" y="53.81" width="3.24" height="3.24"/><rect class="cls-2" x="76.63" y="53.81" width="3.24" height="3.24"/><rect class="cls-2" x="81.61" y="53.81" width="3.24" height="3.24"/><rect class="cls-1" x="-1.44" y="73.22" width="47.28" height="3.67" transform="translate(94.33 105.45) rotate(129.33)"/><circle class="cls-1" cx="38.96" cy="58.81" r="3.87" transform="translate(-31.22 51.67) rotate(-50.67)"/><circle class="cls-1" cx="34.83" cy="55.43" r="3.87" transform="translate(-30.12 47.24) rotate(-50.67)"/><circle class="cls-1" cx="10.3" cy="93.79" r="3.87" transform="translate(-68.77 42.31) rotate(-50.67)"/><circle class="cls-1" cx="6.17" cy="90.4" r="3.87" transform="translate(-67.67 37.88) rotate(-50.67)"/><rect class="cls-1" x="96.31" y="69.19" width="47.28" height="3.67" transform="translate(176.69 198.35) rotate(-144.65)"/><circle class="cls-1" cx="137.31" cy="86.62" r="3.87" transform="translate(-12.78 148.5) rotate(-54.65)"/><circle class="cls-1" cx="140.4" cy="82.26" r="3.87" transform="translate(-7.92 149.19) rotate(-54.65)"/><circle class="cls-1" cx="100.43" cy="60.45" r="3.87" transform="translate(-6.98 107.39) rotate(-54.65)"/><circle class="cls-1" cx="103.52" cy="56.1" r="3.87" transform="translate(-2.13 108.08) rotate(-54.65)"/><rect class="cls-1" x="26.88" y="137.31" width="47.28" height="3.67" transform="translate(-92.72 176.54) rotate(-84.68)"/><circle class="cls-1" cx="45.71" cy="161.98" r="3.87" transform="translate(-119.82 192.46) rotate(-84.68)"/><circle class="cls-1" cx="51.03" cy="162.48" r="3.87" transform="translate(-115.49 198.21) rotate(-84.68)"/><circle class="cls-1" cx="49.9" cy="116.96" r="3.87" transform="translate(-71.18 155.79) rotate(-84.68)"/><circle class="cls-1" cx="55.22" cy="117.46" r="3.87" transform="translate(-66.85 161.54) rotate(-84.68)"/><rect class="cls-1" x="28.71" y="193.82" width="47.28" height="3.67" transform="translate(-129.54 284.76) rotate(-101.12)"/><circle class="cls-1" cx="54.2" cy="218.92" r="3.87" transform="translate(-41.2 14.56) rotate(-11.12)"/><circle class="cls-1" cx="59.45" cy="217.89" r="3.87" transform="translate(-40.9 15.55) rotate(-11.12)"/><circle class="cls-1" cx="45.48" cy="174.55" r="3.87" transform="translate(-32.8 12.05) rotate(-11.12)"/><circle class="cls-1" cx="50.73" cy="173.52" r="3.87" transform="translate(-32.51 13.04) rotate(-11.12)"/><rect class="cls-1" x="72.41" y="136.45" width="47.28" height="3.67" transform="translate(10.17 283.11) rotate(-114.54)"/><circle class="cls-1" cx="103.25" cy="160.48" r="3.87" transform="translate(-57.33 57.39) rotate(-24.54)"/><circle class="cls-1" cx="108.12" cy="158.26" r="3.87" transform="translate(-55.97 59.21) rotate(-24.54)"/><circle class="cls-1" cx="84.47" cy="119.35" r="3.87" transform="translate(-41.95 45.87) rotate(-24.54)"/><circle class="cls-1" cx="89.33" cy="117.13" r="3.87" transform="translate(-40.58 47.69) rotate(-24.54)"/><rect class="cls-1" x="132.38" y="51.81" width="47.28" height="3.67" transform="translate(32.68 163.23) rotate(-60.6)"/><circle class="cls-1" cx="142.31" cy="72.53" r="3.87" transform="translate(9.25 160.9) rotate(-60.6)"/><circle class="cls-1" cx="146.96" cy="75.16" r="3.87" transform="translate(9.33 166.29) rotate(-60.6)"/><circle class="cls-1" cx="164.51" cy="33.14" r="3.87" transform="translate(54.87 160.19) rotate(-60.6)"/><circle class="cls-1" cx="169.16" cy="35.76" r="3.87" transform="translate(54.96 165.58) rotate(-60.6)"/><rect class="cls-1" x="77.3" y="186.21" width="47.28" height="3.67" transform="translate(-112.43 183.66) rotate(-60.6)"/><circle class="cls-1" cx="87.23" cy="206.93" r="3.87" transform="translate(-135.87 181.33) rotate(-60.6)"/><circle class="cls-1" cx="91.89" cy="209.55" r="3.87" transform="translate(-135.78 186.72) rotate(-60.6)"/><circle class="cls-1" cx="109.43" cy="167.53" r="3.87" transform="translate(-90.24 180.62) rotate(-60.6)"/><circle class="cls-1" cx="114.09" cy="170.16" r="3.87" transform="translate(-90.16 186.01) rotate(-60.6)"/><rect class="cls-1" x="-6.81" y="122.78" width="47.28" height="3.67" transform="translate(120.03 52.77) rotate(62.84)"/><circle class="cls-1" cx="8.63" cy="102.77" r="3.87" transform="translate(-45.95 15.27) rotate(-27.16)"/><circle class="cls-1" cx="3.87" cy="105.21" r="3.87" transform="translate(-47.59 13.36) rotate(-27.16)"/><circle class="cls-1" cx="29.26" cy="143.01" r="3.87" transform="translate(-62.04 29.12) rotate(-27.16)"/><circle class="cls-1" cx="24.51" cy="145.45" r="3.87" transform="translate(-63.68 27.22) rotate(-27.16)"/><rect class="cls-1" x="38.52" y="68.65" width="60.5" height="6.5"/><rect class="cls-1" x="38.52" y="79.65" width="60.5" height="6.5"/><rect class="cls-1" x="38.52" y="90.65" width="60.5" height="6.5"/><rect class="cls-1" x="38.52" y="101.65" width="60.5" height="6.5"/></g></g></svg>