<svg xmlns="http://www.w3.org/2000/svg" viewBox="0 0 215.66 130.85">
  <defs>
    <style>
      .cls-1 {
        fill: #f24942;
      }
      .cls-3 {
        fill: #666;
      }
      .cls-4 {
        fill: #f1ea35;
      }
      .cls-5 {
        fill: #80b7e5;
      }
    </style>
  </defs>
  <title>Asset 5</title>
  <g id="Layer_2" data-name="Layer 2">
    <g id="Слой_1" data-name="Слой 1"><rect class="cls-1" x="151.88" y="33.58" width="63.78" height="15.74" rx="7.87" ry="7.87"/><polygon class="cls-2" points="202.97 49.38 201.06 33.58 204.87 33.58 202.97 49.38"/><polygon class="cls-2" points="196.97 49.38 195.06 33.58 198.87 33.58 196.97 49.38"/><polygon class="cls-2" points="190.97 49.38 189.06 33.58 192.87 33.58 190.97 49.38"/><polygon class="cls-3" points="206.75 33.57 151.73 33.57 151.73 17.37 206.75 27.09 206.75 33.57"/><rect class="cls-3" x="151.73" y="49.28" width="55.02" height="5.71"/><rect class="cls-3" x="151.73" y="30.06" width="35.24" height="21"/><rect class="cls-3" x="151.73" y="15.77" width="35.24" height="21"/><polygon class="cls-3" points="158.18 0 151.73 15.94 164.63 15.94 158.18 0"/><polygon class="cls-3" points="170.77 0 164.32 15.94 177.22 15.94 170.77 0"/><circle cx="206.64" cy="26.97" r="2.51"/><path class="cls-4" d="M160.16,23.31a6.38,6.38,0,0,0,9,0"/><path class="cls-4" d="M169.19,23.31a6.38,6.38,0,0,0-9,0"/><path d="M164.68,21.44a2.65,2.65,0,0,0,0,3.75"/><path d="M164.68,25.18a2.65,2.65,0,0,0,0-3.75"/><path class="cls-4" d="M171.77,23.31a6.38,6.38,0,0,0,9,0"/><path class="cls-4" d="M180.8,23.31a6.38,6.38,0,0,0-9,0"/><path d="M176.28,21.44a2.65,2.65,0,0,0,0,3.75"/><path d="M176.28,25.18a2.65,2.65,0,0,0,0-3.75"/><path class="cls-5" d="M207.45,37.75a.66.66,0,1,1-1.31,0c0-.41.24-2.25.6-2.26S207.44,37.34,207.45,37.75Z"/><path class="cls-5" d="M209.67,53.11a.66.66,0,1,1-1.31,0c0-.41.24-2.25.6-2.26S209.66,52.69,209.67,53.11Z"/><path class="cls-5" d="M200.68,50.08a.66.66,0,1,1-1.31,0c0-.41.24-2.25.6-2.26S200.67,49.66,200.68,50.08Z"/><path class="cls-5" d="M194.62,45.33a.66.66,0,1,1-1.31,0c0-.41.24-2.25.6-2.26S194.61,44.91,194.62,45.33Z"/><rect class="cls-3" x="44.83" y="35.16" width="130.89" height="54.61"/><rect class="cls-3" x="44.83" y="75.78" width="15.46" height="54.61"/><rect class="cls-3" x="70.11" y="75.78" width="15.46" height="54.61"/><rect class="cls-3" x="136" y="75.78" width="15.46" height="54.61"/><rect class="cls-3" x="160.26" y="75.78" width="15.46" height="54.61"/><polygon class="cls-2" points="75.78 116.42 59.98 118.32 59.98 114.52 75.78 116.42"/><polygon class="cls-2" points="75.78 122.42 59.98 124.32 59.98 120.52 75.78 122.42"/><polygon class="cls-2" points="75.78 128.42 59.98 130.32 59.98 126.52 75.78 128.42"/><polygon class="cls-2" points="101.36 116.42 85.56 118.32 85.56 114.52 101.36 116.42"/><polygon class="cls-2" points="101.36 122.42 85.56 124.32 85.56 120.52 101.36 122.42"/><polygon class="cls-2" points="101.36 128.42 85.56 130.32 85.56 126.52 101.36 128.42"/><polygon class="cls-2" points="167.26 116.42 151.46 118.32 151.46 114.52 167.26 116.42"/><polygon class="cls-2" points="167.26 122.42 151.46 124.32 151.46 120.52 167.26 122.42"/><polygon class="cls-2" points="167.26 128.42 151.46 130.32 151.46 126.52 167.26 128.42"/><polygon class="cls-2" points="191.63 116.42 175.83 118.32 175.83 114.52 191.63 116.42"/><polygon class="cls-2" points="191.63 122.42 175.83 124.32 175.83 120.52 191.63 122.42"/><polygon class="cls-2" points="191.63 128.42 175.83 130.32 175.83 126.52 191.63 128.42"/><path class="cls-3" d="M77.33,53.52A77.29,77.29,0,0,0,0,130.85"/></g>
  </g>
</svg>
