<svg xmlns="http://www.w3.org/2000/svg" viewBox="0 0 179.9 199.52">
  <defs>
    <style>
      .cls-1 {
        fill: #20654d;
      }
      .cls-3 {
        fill: #00b15d;
      }
      .cls-4 {
        fill: #fff;
      }
      .cls-5 {
        fill: #f24943;
      }
    </style>
  </defs>
  <title>Asset 2</title>
  <g id="Layer_2" data-name="Layer 2">
    <g id="Слой_1" data-name="Слой 1"><path class="cls-1" d="M80.76,148V84.21a19.51,19.51,0,0,1,19.45-19.45h12.55v83Z"/><path class="cls-2" d="M107.86,0a55.31,55.31,0,0,1,0,78.27A55.31,55.31,0,0,1,107.86,0Z"/><path class="cls-2" d="M88.16,92.9a20.7,20.7,0,0,1,20.72-20.72A20.7,20.7,0,0,1,88.16,92.9Z"/><path class="cls-2" d="M106.84,72.18A20.7,20.7,0,0,1,127.56,92.9,20.7,20.7,0,0,1,106.84,72.18Z"/><rect class="cls-3" x="101.04" y="10.72" width="13.65" height="56.94" rx="6.82" ry="6.82" transform="translate(215.72 78.39) rotate(-180)"/><circle class="cls-2" cx="107.86" cy="75.67" r="7.49"/><circle class="cls-4" cx="112.48" cy="22.76" r="4.27"/><circle class="cls-2" cx="112.48" cy="22.76" r="2.19"/><circle class="cls-4" cx="103.24" cy="22.76" r="3.37"/><circle class="cls-2" cx="103.24" cy="22.76" r="1.73"/><path class="cls-1" d="M107.93,30.62a3.85,3.85,0,0,1,3.53,3.82v9.69h-3.53Z"/><rect class="cls-5" x="103.69" y="52.26" width="11" height="2.48" transform="translate(218.38 107) rotate(180)"/><rect class="cls-4" x="109.63" y="52.26" width="1.36" height="1.36" transform="translate(220.62 105.88) rotate(180)"/><rect x="107.38" y="52.26" width="1.36" height="1.36" transform="translate(216.13 105.88) rotate(180)"/><rect class="cls-2" x="107.4" y="79.32" width="4" height="141" transform="translate(259.23 40.42) rotate(90)"/><polygon class="cls-2" points="0 137.05 0 133.85 31.63 146.8 31.63 147.4 0 137.05"/><polygon class="cls-2" points="0 144.23 0 141.04 31.63 148.16 31.63 148.76 0 144.23"/><polygon class="cls-2" points="0 151.42 0 148.23 31.63 149.52 31.63 150.13 0 151.42"/><polygon class="cls-2" points="0 158.6 0 155.41 31.63 150.88 31.63 151.49 0 158.6"/><polygon class="cls-2" points="0 165.79 0 162.6 31.63 152.24 31.63 152.85 0 165.79"/><polygon class="cls-2" points="39.33 145.42 39.33 144.32 31.63 146.8 31.63 147.4 39.33 145.42"/><polygon class="cls-2" points="39.33 147.9 39.33 146.8 31.63 148.16 31.63 148.76 39.33 147.9"/><polygon class="cls-2" points="39.33 150.37 39.33 149.27 31.63 149.52 31.63 150.13 39.33 150.37"/><polygon class="cls-2" points="39.33 152.85 39.33 151.75 31.63 150.88 31.63 151.49 39.33 152.85"/><polygon class="cls-2" points="39.33 155.32 39.33 154.22 31.63 152.24 31.63 152.85 39.33 155.32"/><rect class="cls-2" x="96.18" y="155.59" width="8.5" height="35" transform="translate(101.75 -27.02) rotate(30.5)"/><ellipse class="cls-2" cx="103.09" cy="186.46" rx="3.33" ry="14.17" transform="translate(-65.77 56.54) rotate(-23.49)"/><rect class="cls-2" x="124.43" y="161.09" width="8.5" height="35"/><ellipse class="cls-2" cx="137.76" cy="188.76" rx="3.33" ry="14.17" transform="translate(-95.92 189.21) rotate(-53.99)"/><rect class="cls-1" x="96.26" y="125.61" width="40.5" height="35.98"/><circle class="cls-5" cx="89.63" cy="74.63" r="1.38"/><circle class="cls-5" cx="96.01" cy="71.01" r="1.38"/><circle class="cls-5" cx="85.76" cy="82.01" r="1.38"/><circle class="cls-5" cx="107.26" cy="88.01" r="1.38"/><circle class="cls-5" cx="100.01" cy="97.76" r="1.38"/><circle class="cls-5" cx="107.51" cy="99.01" r="1.38"/><circle class="cls-5" cx="87.26" cy="98.26" r="1.38"/><circle class="cls-5" cx="94.26" cy="107.76" r="1.38"/><circle class="cls-5" cx="105.01" cy="110.01" r="1.38"/><circle class="cls-5" cx="88.26" cy="120.51" r="1.38"/><circle class="cls-5" cx="101.01" cy="120.51" r="1.38"/><circle class="cls-5" cx="91.76" cy="133.51" r="1.38"/><circle class="cls-5" cx="106.76" cy="133.01" r="1.38"/><circle class="cls-5" cx="111.26" cy="142.26" r="1.38"/><circle class="cls-5" cx="105.51" cy="149.76" r="1.38"/><circle class="cls-5" cx="113.26" cy="155.01" r="1.38"/><circle class="cls-5" cx="124.01" cy="142.51" r="1.38"/><circle class="cls-5" cx="119.76" cy="133.76" r="1.38"/><circle class="cls-5" cx="131.51" cy="133.26" r="1.38"/><circle class="cls-5" cx="131.01" cy="152.63" r="1.38"/></g>
  </g>
</svg>
