<svg xmlns="http://www.w3.org/2000/svg" viewBox="0 0 167.6 217.96">
  <defs>
    <style>
      .cls-1 {
        fill: #cdcdcd;
      }
      .cls-2 {
        fill: #9a9b9b;
      }
      .cls-3 {
        fill: #f24943;
      }
      .cls-4 {
        fill: #fff;
      }
    </style>
  </defs>
  <title>Asset 4</title>
  <g id="Layer_2" data-name="Layer 2">
    <g id="Слой_1" data-name="Слой 1"><rect class="cls-1" x="27.65" y="28.71" width="100" height="165.67" rx="46.5" ry="46.5"/><path class="cls-1" d="M46.48,196.46H38.15A21.56,21.56,0,0,0,16.65,218H68A21.56,21.56,0,0,0,46.48,196.46Z"/><rect class="cls-1" x="41.65" y="163.38" width="26.33" height="54.58"/><path class="cls-1" d="M108.81,196.46h8.33a21.56,21.56,0,0,1,21.5,21.5H87.31A21.56,21.56,0,0,1,108.81,196.46Z"/><rect class="cls-1" x="87.31" y="163.38" width="26.33" height="54.58" transform="translate(200.96 381.34) rotate(-180)"/><rect class="cls-1" x="14.67" y="49.62" width="25.5" height="120.89" rx="12.75" ry="12.75" transform="translate(35.19 -3.1) rotate(17.92)"/><rect class="cls-1" x="23.96" y="124.2" width="6.45" height="30.59" rx="3.23" ry="3.23" transform="translate(-60.53 27.67) rotate(-27.08)"/><rect class="cls-1" x="119.5" y="40.79" width="25.5" height="120.89" rx="12.75" ry="12.75" transform="translate(-31.59 71.31) rotate(-27.08)"/><rect class="cls-1" x="149.67" y="106.92" width="6.45" height="30.59" rx="3.23" ry="3.23" transform="translate(-10.42 230.1) rotate(-72.08)"/><polygon
      class="cls-2"
      points="81.5 0 83.23 8.01 85.95 0.28 86.66 8.44 90.32 1.11 90.01 9.3 94.56 2.49 93.22 10.57 98.59 4.39 96.25 12.24 102.36 6.78 99.05 14.27 105.79 9.62 101.57 16.64 108.84 12.87 103.77 19.3 111.46 16.47 105.63 22.22 113.61 20.38 107.1 25.35 115.25 24.52 108.17 28.64 116.36 28.84 108.82 32.03 116.92 33.26 109.03 35.48 116.92 37.71 108.82 38.94 116.36 42.13 108.17 42.33 115.25 46.45 107.1 45.62 113.61 50.59 105.63 48.75 111.46 54.5 103.77 51.67 108.84 58.1 101.57 54.33 105.79 61.35 99.05 56.7 102.36 64.19 96.25 58.73 98.59 66.58 93.22 60.4 94.56 68.48 90.01 61.67 90.32 69.86 86.66 62.53 85.95 70.69 83.23 62.97 81.5 70.97 79.77 62.97 77.05 70.69 76.34 62.53 72.67 69.86 72.99 61.67 68.44 68.48 69.78 60.4 64.4 66.58 66.75 58.73 60.64 64.19 63.95 56.7 57.21 61.35 61.43 54.33 54.16 58.1 59.22 51.67 51.54 54.5 57.37 48.75 49.39 50.59 55.9 45.62 47.75 46.45 54.83 42.33 46.64 42.13 54.18 38.94 46.08 37.71 53.97 35.48 46.08 33.26 54.18 32.03 46.64 28.84 54.83 28.64 47.75 24.52 55.9 25.35 49.39 20.38 57.37 22.22 51.54 16.47 59.22 19.3 54.16 12.87 61.43 16.64 57.21 9.62 63.95 14.27 60.64 6.78 66.75 12.24 64.4 4.39 69.78 10.57 68.44 2.49 72.99 9.3 72.67 1.11 76.34 8.44 77.05 0.28 79.77 8.01 81.5 0"/><ellipse class="cls-1" cx="81.5" cy="29.48" rx="21" ry="16.17"/><ellipse class="cls-1" cx="62.15" cy="29.38" rx="4.85" ry="3.73"/><ellipse class="cls-1" cx="100.5" cy="29.38" rx="4.85" ry="3.73"/><rect class="cls-1" x="64.19" y="35.01" width="34.63" height="19.17"/><rect x="66.33" y="39.49" width="30.33" height="12.88"/><path class="cls-3" d="M96.09,40.06V51.8H66.9V40.06H96.09m1.14-1.14H65.76v14H97.24v-14Z"/><polygon class="cls-4" points="69.9 44.03 71.7 51.8 68.11 51.8 69.9 44.03"/><polygon class="cls-4" points="75.56 44.03 77.35 51.8 73.76 51.8 75.56 44.03"/><polygon class="cls-4" points="81.21 44.03 83 51.8 79.41 51.8 81.21 44.03"/><polygon class="cls-4" points="86.86 44.03 88.65 51.8 85.07 51.8 86.86 44.03"/><polygon class="cls-4" points="92.51 44.03 94.31 51.8 90.72 51.8 92.51 44.03"/><polygon class="cls-4" points="89.65 47.84 87.86 40.06 91.44 40.06 89.65 47.84"/><polygon class="cls-4" points="84 47.84 82.2 40.06 85.79 40.06 84 47.84"/><polygon class="cls-4" points="78.35 47.84 76.55 40.06 80.14 40.06 78.35 47.84"/><polygon class="cls-4" points="72.69 47.84 70.9 40.06 74.49 40.06 72.69 47.84"/><circle cx="75.73" cy="23.66" r="1.72"/><circle cx="87.27" cy="23.66" r="1.72"/><path class="cls-2" d="M89.55,30.24H81.82v3.62h7.74a1.82,1.82,0,0,0,1.81-1.81h0A1.82,1.82,0,0,0,89.55,30.24Z"/></g>
  </g>
</svg>
