<svg xmlns="http://www.w3.org/2000/svg" viewBox="0 0 111.36 197.35">
  <defs>
    <style>
      .cls-1 {
        fill: #fff;
      }
      .cls-2 {
        fill: #f24943;
      }
      .cls-4 {
        fill: #cdcdcd;
      }
      .cls-5 {
        fill: #00ad5e;
      }
      .cls-6 {
        fill: #20654d;
      }
      .cls-7 {
        fill: none;
        stroke: #000;
        stroke-miterlimit: 10;
        stroke-width: 0.51px;
      }
    </style>
  </defs>
  <title>Asset 1</title>
  <g id="Layer_2" data-name="Layer 2">
    <g id="Слой_1" data-name="Слой 1"><rect class="cls-1" x="49.34" y="175.65" width="6.8" height="3.02" transform="translate(62.43 -7.43) rotate(19.58)"/><rect class="cls-2" x="48.33" y="178.5" width="6.8" height="3.02" transform="translate(63.33 -6.93) rotate(19.58)"/><rect class="cls-1" x="47.31" y="181.35" width="6.8" height="3.02" transform="translate(64.22 -6.42) rotate(19.58)"/><rect class="cls-2" x="46.3" y="184.2" width="6.8" height="3.02" transform="translate(65.12 -5.92) rotate(19.58)"/><rect class="cls-1" x="45.29" y="187.05" width="6.8" height="3.02" transform="translate(66.02 -5.41) rotate(19.58)"/><rect class="cls-3" x="60.98" y="99.76" width="10.89" height="78.25" transform="translate(50.39 -14.23) rotate(19.58)"/><rect class="cls-3" x="43.79" y="189.79" width="6.83" height="5.84" transform="translate(67.32 -4.67) rotate(19.58)"/><path class="cls-3" d="M48.37,194.5l-26.53-7.71a1.63,1.63,0,0,1-1.11-2h0a1.63,1.63,0,0,1,2-1.11L45,188.82c.86.25,5.67,3.71,5.42,4.57h0A1.63,1.63,0,0,1,48.37,194.5Z"/><rect class="cls-3" x="43.04" y="194.16" width="6.83" height="1.34" transform="translate(67.99 -4.3) rotate(19.58)"/><rect class="cls-1" x="93.46" y="176.42" width="6.8" height="3.02"/><rect class="cls-2" x="93.46" y="179.44" width="6.8" height="3.02"/><rect class="cls-1" x="93.46" y="182.47" width="6.8" height="3.02"/><rect class="cls-2" x="93.46" y="185.49" width="6.8" height="3.02"/><rect class="cls-1" x="93.46" y="188.51" width="6.8" height="3.02"/><rect class="cls-3" x="91.47" y="98.15" width="10.89" height="78.25"/><rect class="cls-3" x="93.44" y="191.52" width="6.83" height="5.84"/><path class="cls-3" d="M98.54,195.73,71,197.35a1.63,1.63,0,0,1-1.72-1.53h0a1.63,1.63,0,0,1,1.53-1.72l22.66-2.59c.89-.05,6.58,1.6,6.63,2.49h0A1.63,1.63,0,0,1,98.54,195.73Z"/><rect class="cls-3" x="93.44" y="196.01" width="6.83" height="1.34"/><path class="cls-4" d="M111.36,54.49A23,23,0,0,0,88.45,31.58h0A23,23,0,0,0,65.54,54.49v50.12h45.81Z"/><rect class="cls-5" y="66.96" width="75.07" height="14.97" rx="7.48" ry="7.48"/><rect class="cls-5" y="72.41" width="3.86" height="21.77" rx="1.93" ry="1.93"/><rect class="cls-5" x="4.69" y="72.41" width="3.86" height="21.77" rx="1.93" ry="1.93"/><rect class="cls-5" x="9.37" y="72.41" width="3.86" height="21.77" rx="1.93" ry="1.93"/><rect class="cls-5" x="14.06" y="67.56" width="3.86" height="19.73" rx="1.93" ry="1.93"/><rect class="cls-5" x="1.73" y="75.38" width="11.34" height="6.69"/><rect class="cls-4" x="43.43" y="64.47" width="35.73" height="19.85"/><rect class="cls-5" y="36.8" width="75.07" height="14.97" rx="7.48" ry="7.48"/><rect class="cls-5" y="42.24" width="3.86" height="21.77" rx="1.93" ry="1.93"/><rect class="cls-5" x="4.69" y="42.24" width="3.86" height="21.77" rx="1.93" ry="1.93"/><rect class="cls-5" x="9.37" y="42.24" width="3.86" height="21.77" rx="1.93" ry="1.93"/><rect class="cls-5" x="14.06" y="37.39" width="3.86" height="19.73" rx="1.93" ry="1.93"/><rect class="cls-5" x="1.73" y="45.22" width="11.34" height="6.69"/><rect class="cls-4" x="43.43" y="34.3" width="35.73" height="19.85"/><rect class="cls-5" x="64.26" y="9.29" width="32.62" height="32.62" rx="10.28" ry="10.28"/><polygon class="cls-3" points="86.41 0 79.38 9.35 77.74 9.35 76.11 9.35 86.41 0"/><polygon class="cls-3" points="88.96 0 81.93 9.35 80.29 9.35 78.66 9.35 88.96 0"/><polygon class="cls-3" points="91.51 0 84.48 9.35 82.84 9.35 81.2 9.35 91.51 0"/><ellipse class="cls-3" cx="73.56" cy="18.93" rx="5.39" ry="3.27"/><ellipse class="cls-3" cx="87.07" cy="18.93" rx="5.39" ry="3.27"/><path class="cls-6" d="M64.47,23.78a3.75,3.75,0,0,0-3.73,3.73h0a3.75,3.75,0,0,0,3.73,3.73H80.65V23.78Z"/><circle class="cls-2" cx="75.13" cy="18.89" r="1.61"/><circle class="cls-2" cx="88.47" cy="18.89" r="1.61"/><line class="cls-7" x1="85.59" y1="30.86" x2="92.2" y2="24.25"/><line class="cls-7" x1="86.13" y1="28.88" x2="87.57" y2="30.32"/><line class="cls-7" x1="87.15" y1="27.86" x2="88.59" y2="29.3"/><line class="cls-7" x1="88.17" y1="26.84" x2="89.62" y2="28.28"/><line class="cls-7" x1="89.19" y1="25.81" x2="90.64" y2="27.26"/><line class="cls-7" x1="90.22" y1="24.79" x2="91.66" y2="26.23"/><line class="cls-7" x1="68.6" y1="33.17" x2="75.21" y2="39.78"/><line class="cls-7" x1="70.58" y1="33.71" x2="69.14" y2="35.15"/><line class="cls-7" x1="71.6" y1="34.73" x2="70.16" y2="36.18"/><line class="cls-7" x1="72.62" y1="35.76" x2="71.18" y2="37.2"/><line class="cls-7" x1="73.65" y1="36.78" x2="72.2" y2="38.22"/><line class="cls-7" x1="74.67" y1="37.8" x2="73.22" y2="39.24"/><path d="M80.61,37.64c3,0,5.39-1.46,5.39-3.27H75.22C75.22,36.18,77.63,37.64,80.61,37.64Z"/></g>
  </g>
</svg>
