<svg xmlns="http://www.w3.org/2000/svg" viewBox="0 0 13.65 11.96"><defs><style>.cls-1{fill:#666;}</style></defs><title>Asset 3</title><g id="Layer_2" data-name="Layer 2"><g id="Слой_2" data-name="Слой 2"><rect class="cls-1" y="4.63" width="4.53" height="2.84"/><polygon class="cls-1" points="7.2 9.64 2.67 7.47 2.67 4.63 7.2 2.45 7.2 9.64"/><path class="cls-1" d="M3.09,9.64A2.24,2.24,0,1,1,5.33,7.4,2.24,2.24,0,0,1,3.09,9.64Zm0-3.71A1.47,1.47,0,1,0,4.56,7.4,1.47,1.47,0,0,0,3.09,5.93Z"/><path class="cls-1" d="M8.5,9.3,8.23,9a4.3,4.3,0,0,0,0-6.09l.27-.27a4.68,4.68,0,0,1,0,6.63Z"/><path class="cls-1" d="M9.78,10.57l-.27-.27a6.11,6.11,0,0,0,0-8.63l.27-.27A6.49,6.49,0,0,1,9.78,10.57Z"/><path class="cls-1" d="M11.17,12l-.27-.27A8.09,8.09,0,0,0,10.9.27L11.17,0A8.47,8.47,0,0,1,11.17,12Z"/></g></g></svg>