<svg xmlns="http://www.w3.org/2000/svg" viewBox="0 0 56.51 218.46"><defs><style>.cls-1{fill:#6fc055;}.cls-2{fill:#f24943;}.cls-3{fill:#586ab1;}</style></defs><title>Asset 7</title><g id="Layer_2" data-name="Layer 2"><g id="Слой_1" data-name="Слой 1"><path class="cls-1" d="M27.9,51.87a13.21,13.21,0,0,1-11.44-6.6L1.77,19.81A13.21,13.21,0,0,1,13.21,0H42.6A13.21,13.21,0,0,1,54,19.81L39.34,45.26A13.21,13.21,0,0,1,27.9,51.87Z"/><path class="cls-2" d="M27.9,44.4a1,1,0,0,1-.83-.48L26,42.08a1,1,0,0,1,.83-1.43H29a1,1,0,0,1,.83,1.43l-1.06,1.84A1,1,0,0,1,27.9,44.4Z"/><path d="M8.5,9.08A17.6,17.6,0,0,0,26.11,26.69,17.6,17.6,0,0,0,8.5,9.08Z"/><path d="M47.3,9.08A17.6,17.6,0,0,0,29.69,26.69,17.6,17.6,0,0,0,47.3,9.08Z"/><circle cx="25.91" cy="33.48" r="0.84"/><circle cx="29.9" cy="33.48" r="0.84"/><circle class="cls-3" cx="17.5" cy="18.1" r="5.17"/><circle cx="17.5" cy="18.1" r="2.43"/><circle class="cls-3" cx="38.32" cy="18.1" r="5.17"/><circle cx="38.32" cy="18.1" r="1.6"/><ellipse class="cls-1" cx="27.9" cy="96.46" rx="17" ry="47"/><rect class="cls-1" x="22.18" y="129.13" width="3.33" height="89.33"/><rect class="cls-1" x="0.18" y="213.8" width="25.33" height="4.67"/><rect class="cls-1" x="11.51" y="95.14" width="3.33" height="89.33"/><rect class="cls-1" x="41.18" y="95.14" width="3.33" height="89.33"/><rect class="cls-1" x="31.18" y="129.13" width="3.33" height="89.33" transform="translate(65.69 347.6) rotate(180)"/><rect class="cls-1" x="31.18" y="213.8" width="25.33" height="4.67" transform="translate(87.69 432.26) rotate(180)"/><circle class="cls-1" cx="12.85" cy="185.79" r="5.33"/><circle class="cls-1" cx="42.85" cy="185.79" r="5.33"/></g></g></svg>