<svg xmlns="http://www.w3.org/2000/svg" viewBox="0 0 92.28 220.67">
  <defs>
    <style>
      .cls-1 {
        fill: #000;
      }
      .cls-2 {
        fill: #cf6cac;
      }
      .cls-3 {
        fill: #9a5790;
      }
      .cls-4 {
        fill: #fff;
      }
      .cls-5 {
        fill: #8a4242;
      }
      .cls-6 {
        fill: #f24943;
      }
    </style>
  </defs>
  <title>Asset 3</title>
  <g id="Layer_2" data-name="Layer 2">
    <g id="Слой_1" data-name="Слой 1"><path d="M38.21,1.21a10.12,10.12,0,0,1-3.53,15.86A10.11,10.11,0,1,0,46.22,33.16a16.63,16.63,0,1,0-8-32Z"/><polygon class="cls-1" points="60.21 89.22 31.94 89.22 11.48 55.81 80.67 55.81 60.21 89.22"/><polygon class="cls-1" points="60.21 89.22 31.94 89.22 0 207.62 92.15 207.62 60.21 89.22"/><ellipse class="cls-2" cx="46.08" cy="47.3" rx="11" ry="33.91"/><ellipse class="cls-2" cx="35.4" cy="38.69" rx="4.58" ry="6.1"/><ellipse class="cls-2" cx="56.75" cy="38.69" rx="4.58" ry="6.1"/><path d="M50,9.8a15,15,0,0,1-15,15l3-6.49,6.35-6.63Z"/><circle class="cls-1" cx="41.06" cy="36.34" r="2.16"/><circle class="cls-1" cx="51.01" cy="36.34" r="2.16"/><rect class="cls-3" x="44.95" y="31.44" width="2.02" height="29.28"/><rect x="45.13" y="23.9" width="2.02" height="14.35" transform="translate(77.22 -15.06) rotate(90)"/><polygon class="cls-4" points="41.76 81.72 39.72 64.8 43.8 64.8 41.76 81.72"/><polygon class="cls-4" points="50.56 81.72 48.52 64.8 52.6 64.8 50.56 81.72"/><rect class="cls-5" x="45.13" y="57.65" width="2.02" height="14.35" transform="translate(110.97 18.69) rotate(90)"/><path class="cls-6" d="M51.69,89.54a.84.84,0,1,1-1.66,0c0-.53.3-2.86.76-2.88S51.68,89,51.69,89.54Z"/><ellipse class="cls-1" cx="75.83" cy="216.62" rx="2.68" ry="16.68" transform="translate(-150.53 254.45) rotate(-80.19)"/><rect class="cls-1" x="59" y="204.76" width="9.95" height="15.91"/><ellipse class="cls-1" cx="37.96" cy="216.62" rx="2.68" ry="16.68" transform="translate(-181.95 217.13) rotate(-80.19)"/><rect class="cls-1" x="21.13" y="204.76" width="9.95" height="15.91"/></g>
  </g>
</svg>
