<svg id="Слой_1" data-name="Слой 1" xmlns="http://www.w3.org/2000/svg" xmlns:xlink="http://www.w3.org/1999/xlink" viewBox="0 0 266.04 356.36">
  <defs>
    <style>
      .cls-1 {
        fill: none;
      }
      .cls-2,
      .cls-8 {
        fill: #fff;
      }
      .cls-2 {
        stroke: #000;
        stroke-miterlimit: 10;
      }
      .cls-3 {
        clip-path: url("#clip-path");
      }
      .cls-4 {
        fill: #ffd7a5;
      }
      .cls-5 {
        fill: #e1b285;
      }
      .cls-6 {
        fill: #b48d69;
      }
      .cls-7 {
        fill: #f24943;
      }
    </style>
    <clipPath id="clip-path"><rect class="cls-1" x="-0.29" y="1.63" width="266.33" height="354.74"/></clipPath>
  </defs>
  <g class="cls-3"><path
    class="cls-4"
    d="M363.85,264.29c-12.14,0-12.14,13.71-24.29,13.71s-12.14-13.71-24.29-13.71S303.14,278,291,278s-12.13-13.71-24.25-13.71S254.62,278,242.49,278s-12.13-13.71-24.26-13.71S206.1,278,194,278s-12.13-13.71-24.26-13.71v27.25c12.13,0,12.13,13.71,24.26,13.71s12.13-13.71,24.26-13.71,12.13,13.71,24.26,13.71,12.13-13.71,24.26-13.71,12.13,13.71,24.25,13.71,12.14-13.71,24.27-13.71,12.14,13.71,24.29,13.71,12.14-13.71,24.29-13.71Z"/><path
    class="cls-5"
    d="M270.15,35.83c-7.59,0-7.59,8.56-15.17,8.56s-7.59-8.56-15.17-8.56-7.58,8.56-15.16,8.56-7.58-8.56-15.15-8.56-7.58,8.56-15.16,8.56-7.58-8.56-15.15-8.56S171.6,44.4,164,44.4s-7.58-8.56-15.15-8.56v17c7.58,0,7.58,8.56,15.15,8.56s7.58-8.56,15.15-8.56,7.58,8.56,15.15,8.56,7.58-8.56,15.16-8.56,7.58,8.56,15.15,8.56,7.58-8.56,15.16-8.56,7.59,8.56,15.17,8.56,7.59-8.56,15.17-8.56Z"/><circle class="cls-6" cx="61.07" cy="132.66" r="22.96"/><circle class="cls-5" cx="203.29" cy="132.66" r="22.96"/><path class="cls-1" d="M195.79,75.21l-3.51-.85c.21.52.41,1.05.62,1.58Z"/><path class="cls-4" d="M63.95,178.59,192.84,204a165.12,165.12,0,0,0,9.89-38.77L62,168Q62.85,173.41,63.95,178.59Z"/><path class="cls-4" d="M132.18,258c21.11,0,40.09-14.82,53.3-38.43l-110-6.67C88.67,240.38,109.16,258,132.18,258Z"/><path class="cls-5" d="M62,168l140.68-2.81a191.36,191.36,0,0,0,1.68-25.34,188.5,188.5,0,0,0-3.23-35L60.68,156.38Q61.19,162.3,62,168Z"/><path class="cls-4" d="M132.18,21.73c-17.48,0-33.5,10.16-46,27.06L192.28,74.36C179.33,42.64,157.25,21.73,132.18,21.73Z"/><path class="cls-5" d="M192.28,74.36,86.19,48.79C74.86,64.12,66.45,85,62.49,108.9l130.41-33C192.69,75.41,192.49,74.88,192.28,74.36Z"/><path d="M192.84,204,63.95,178.59c.14.64.29,1.27.43,1.91L189,212.79Q191,208.53,192.84,204Z"/><path class="cls-5" d="M64.38,180.5a150.89,150.89,0,0,0,11.06,32.42l110,6.67c1.22-2.19,2.39-4.46,3.5-6.8Z"/><path class="cls-4" d="M62.49,108.9a189.68,189.68,0,0,0-2.53,31c0,5.6.26,11.11.72,16.5l94.65-34.71L80.24,104.41Z"/><path d="M192.9,75.94,80.24,104.41l75.09,17.26,45.85-16.81A160.27,160.27,0,0,0,192.9,75.94Z"/><circle class="cls-7" cx="102.21" cy="104.2" r="8.94"/><circle cx="102.21" cy="104.2" r="4.41"/><circle class="cls-7" cx="160.8" cy="104.2" r="8.94"/><circle cx="160.8" cy="104.2" r="4.41"/><polygon class="cls-8" points="145.05 208.4 134.18 208.4 134.18 192.42 145.05 194.55 145.05 208.4"/><path class="cls-4" d="M215.92,277.46a163.68,163.68,0,0,0-83.74-23h0A164.49,164.49,0,0,0,17.52,301.1l48,20.83Z"/><path class="cls-4" d="M-12.22,339.81H5.1l60.45-17.88-48-20.83A166.73,166.73,0,0,0-12.22,339.81Z"/><path class="cls-5" d="M-15.41,345.88,5.1,339.81H-12.22C-13.33,341.81-14.38,343.84-15.41,345.88Z"/><path class="cls-5" d="M215.92,277.46,65.55,321.93,5.1,339.81l-20.51,6.07a163.48,163.48,0,0,0-17.35,67.41c0,.05,0,.11,0,.17L276.4,339.51A167,167,0,0,0,215.92,277.46Z"/><path class="cls-4" d="M276.58,339.81l-.19-.31L-32.76,413.46c-.08,2-.16,4.05-.16,6.1v7.94l171.23,15.94,118.35-30.14,12.28-3.13,27.52-7A163.59,163.59,0,0,0,276.58,339.81Z"/></g>
</svg>
