<svg id="Слой_1" data-name="Слой 1" xmlns="http://www.w3.org/2000/svg" xmlns:xlink="http://www.w3.org/1999/xlink" viewBox="0 0 265.44 354.21">
  <defs>
    <style>
      .cls-1,
      .cls-7,
      .cls-8 {
        fill: none;
      }
      .cls-2,
      .cls-4 {
        fill: #fff;
      }
      .cls-2,
      .cls-7,
      .cls-8 {
        stroke: #000;
        stroke-miterlimit: 10;
      }
      .cls-3 {
        clip-path: url("#clip-path");
      }
      .cls-5 {
        clip-path: url("#clip-path-2");
      }
      .cls-6 {
        clip-path: url("#clip-path-3");
      }
      .cls-7 {
        stroke-width: 2.5px;
      }
      .cls-8 {
        stroke-width: 8.05px;
      }
      .cls-9 {
        fill: #058d5a;
      }
      .cls-10 {
        fill: #231300;
      }
    </style>
    <clipPath id="clip-path"><rect class="cls-1" x="7.11" y="-453.71" width="258.33" height="330.88"/></clipPath>
    <clipPath id="clip-path-2"><rect class="cls-1" x="401.48" y="-466.57" width="258.33" height="343.1"/></clipPath>
    <clipPath id="clip-path-3"><rect class="cls-1" width="266.33" height="356.2"/></clipPath>
  </defs>
  <g class="cls-3"><rect class="cls-4" x="-2.23" y="10.48" width="156.79" height="12.18" transform="translate(52.6 90.87) rotate(-84.68)"/><circle class="cls-4" cx="60.21" cy="92.29" r="12.83" transform="translate(-37.27 143.67) rotate(-84.68)"/><circle class="cls-4" cx="77.85" cy="93.93" r="12.83" transform="translate(-22.9 162.73) rotate(-84.68)"/><rect class="cls-4" x="3.86" y="197.86" width="156.79" height="12.18" transform="translate(-102.01 323.99) rotate(-101.12)"/><circle class="cls-4" cx="88.38" cy="281.09" r="12.83" transform="translate(-52.54 22.32) rotate(-11.12)"/><circle class="cls-4" cx="105.77" cy="277.67" r="12.83" transform="translate(-51.56 25.61) rotate(-11.12)"/><circle class="cls-4" cx="59.47" cy="133.96" r="12.83" transform="translate(-24.71 13.98) rotate(-11.12)"/><circle class="cls-4" cx="76.86" cy="130.54" r="12.83" transform="translate(-23.73 17.27) rotate(-11.12)"/><rect class="cls-4" x="148.77" y="7.62" width="156.79" height="12.18" transform="translate(309.06 226.04) rotate(-114.54)"/><circle class="cls-4" cx="251.04" cy="87.31" r="12.83" transform="translate(-13.59 112.17) rotate(-24.54)"/><circle class="cls-4" cx="267.16" cy="79.95" r="12.83" transform="matrix(0.91, -0.42, 0.42, 0.91, -9.07, 118.2)"/><rect class="cls-4" x="164.98" y="172.61" width="156.79" height="12.18" transform="translate(-31.79 302.99) rotate(-60.6)"/><circle class="cls-4" cx="197.91" cy="241.32" r="12.83" transform="translate(-109.48 295.26) rotate(-60.6)"/><circle class="cls-4" cx="213.35" cy="250.02" r="12.83" transform="translate(-109.21 313.14) rotate(-60.6)"/><circle class="cls-4" cx="271.53" cy="110.69" r="12.83" transform="translate(41.79 292.9) rotate(-60.6)"/><rect class="cls-4" x="-113.94" y="-37.71" width="156.79" height="12.18" transform="translate(-47.46 14.44) rotate(62.84)"/><circle class="cls-4" cx="5.69" cy="29.36" r="12.83" transform="translate(-12.77 5.83) rotate(-27.16)"/><circle class="cls-4" cx="-10.08" cy="37.44" r="12.83" transform="translate(-18.2 -0.47) rotate(-27.16)"/></g>
  <g class="cls-6"><line class="cls-7" x1="132.72" y1="-370.47" x2="132.72" y2="74.17"/><polyline class="cls-8" points="-27.45 218.24 20.55 170.25 68.55 218.24"/><polyline class="cls-8" points="-27.45 246.89 20.55 198.89 68.55 246.89"/><polyline class="cls-8" points="-27.45 275.54 20.55 227.54 68.55 275.54"/><polyline class="cls-8" points="199.24 218.24 247.24 170.25 295.23 218.24"/><polyline class="cls-8" points="199.24 246.89 247.24 198.89 295.23 246.89"/><polyline class="cls-8" points="199.24 275.54 247.24 227.54 295.23 275.54"/><ellipse class="cls-9" cx="133.89" cy="259.65" rx="74.06" ry="47.7"/><ellipse cx="133.89" cy="209.65" rx="74.06" ry="47.7"/><ellipse class="cls-9" cx="133.89" cy="163.83" rx="74.06" ry="47.7"/><ellipse cx="133.89" cy="115.5" rx="74.06" ry="47.7"/><circle class="cls-9" cx="111.79" cy="104.26" r="17.91"/><circle class="cls-10" cx="111.79" cy="104.26" r="9.83"/><circle class="cls-9" cx="156" cy="104.26" r="17.91"/><circle class="cls-10" cx="156" cy="104.26" r="9.83"/><polyline class="cls-8" points="18.09 99.54 52.54 65.09 86.99 99.54"/><polyline class="cls-8" points="18.09 120.1 52.54 85.65 86.99 120.1"/><polyline class="cls-8" points="18.09 140.66 52.54 106.21 86.99 140.66"/><polyline class="cls-8" points="180.79 99.54 215.25 65.09 249.7 99.54"/><polyline class="cls-8" points="180.79 120.1 215.25 85.65 249.7 120.1"/><polyline class="cls-8" points="180.79 140.66 215.25 106.21 249.7 140.66"/><polygon class="cls-4" points="126.37 145.66 123.13 126 129.62 126 126.37 145.66"/><polygon class="cls-4" points="140.38 145.66 137.13 126 143.62 126 140.38 145.66"/><polygon class="cls-4" points="113.88 244.81 110.63 225.15 117.12 225.15 113.88 244.81"/><polygon class="cls-4" points="127.88 244.81 124.64 225.15 131.13 225.15 127.88 244.81"/><polygon class="cls-4" points="141.37 244.81 138.13 225.15 144.62 225.15 141.37 244.81"/><polygon class="cls-4" points="155.38 244.81 152.13 225.15 158.62 225.15 155.38 244.81"/><polygon points="132.04 327.3 128.8 307.64 135.29 307.64 132.04 327.3"/></g>
</svg>
