<svg id="Слой_1" data-name="Слой 1" xmlns="http://www.w3.org/2000/svg" xmlns:xlink="http://www.w3.org/1999/xlink" viewBox="0 0 264 354">
  <defs>
    <style>
      .cls-1 {
        fill: none;
      }
      .cls-13,
      .cls-2 {
        fill: #fff;
      }
      .cls-2 {
        stroke: #000;
        stroke-miterlimit: 10;
      }
      .cls-3 {
        clip-path: url("#clip-path");
      }
      .cls-4 {
        fill: #e1b285;
      }
      .cls-5 {
        fill: #ffd7a5;
      }
      .cls-6 {
        fill: #b48d69;
      }
      .cls-7 {
        clip-path: url("#clip-path-2");
      }
      .cls-8 {
        fill: #cdcdcd;
      }
      .cls-9 {
        clip-path: url("#clip-path-3");
      }
      .cls-10 {
        fill: #231300;
      }
      .cls-11 {
        fill: #cf6cac;
      }
      .cls-12 {
        fill: #9a5790;
      }
      .cls-14 {
        fill: #8a4242;
      }
      .cls-15 {
        fill: #f24943;
      }
    </style>
    <clipPath id="clip-path"><rect class="cls-1" x="-0.29" y="-475.42" width="266.33" height="354.74"/></clipPath>
    <clipPath id="clip-path-2"><rect class="cls-1" x="397.02" y="7.85" width="264.56" height="346.53"/></clipPath>
    <clipPath id="clip-path-3"><rect class="cls-1" x="2.32" y="5.18" width="258.33" height="348.47"/></clipPath>
  </defs>
  <g class="cls-3"><path class="cls-4" d="M10.11,269.37,139.5,244,9.69,213.92a21.39,21.39,0,0,1,.42,4.18Z"/><polygon class="cls-5" points="10.11 281.8 254.98 281.8 254.98 270.74 139.5 243.99 10.11 269.37 10.11 281.8"/><polygon class="cls-5" points="254.98 221.34 139.5 243.99 254.98 270.74 254.98 221.34"/><polygon class="cls-5" points="297.28 22.06 297.28 -5.46 -32.92 56.12 -32.92 86.36 103.98 93.63 297.28 22.06"/><polygon class="cls-6" points="-32.92 -49.56 -32.92 9.99 138.31 -33.62 -32.92 -49.56"/><polygon class="cls-4" points="297.28 -18.81 138.31 -33.62 -32.92 9.99 -32.92 56.12 297.28 -5.46 297.28 -18.81"/><polygon class="cls-5" points="-32.92 86.36 -32.92 144.31 103.98 93.63 -32.92 86.36"/><path class="cls-5" d="M-11.4,196.59a21.57,21.57,0,0,1,20,13.65l217.12-36.74-258.63,2.12V204l4.45,1A21.49,21.49,0,0,1-11.4,196.59Z"/><polygon class="cls-5" points="297.28 172.91 297.28 161.38 225.72 173.49 297.28 172.91"/><polygon class="cls-6" points="-32.92 144.31 -32.92 175.61 225.72 173.49 297.28 161.38 297.28 103.88 103.98 93.63 -32.92 144.31"/><polygon class="cls-4" points="103.98 93.63 297.28 103.88 297.28 28.61 282.1 61.9 297.28 28.61 297.28 22.06 103.98 93.63"/><path class="cls-4" d="M8.59,210.24a21.25,21.25,0,0,1,1.1,3.68L139.5,244,255,221.34V218.1a21.49,21.49,0,0,1,42.3-5.39v-39.8l-71.57.59Z"/><polygon class="cls-4" points="10.11 348.4 -32.91 355.68 -32.91 369.26 10.11 387.93 10.11 348.4"/><polygon class="cls-6" points="10.11 281.8 -32.91 281.8 -32.91 327.29 10.11 331.3 10.11 281.8"/><polygon class="cls-5" points="10.11 331.3 -32.91 327.29 -32.91 355.68 10.11 348.4 10.11 331.3"/><path class="cls-4" d="M-32.87,217.25c0,.28,0,.56,0,.84v59.71l43-8.44V218.1a21.39,21.39,0,0,0-.42-4.18L0,211.68Z"/><path class="cls-4" d="M9.69,213.92a21.25,21.25,0,0,0-1.1-3.68L0,211.68Z"/><polygon class="cls-5" points="10.11 269.37 -32.91 277.81 -32.91 281.8 10.11 281.8 10.11 269.37"/><path class="cls-5" d="M-28.46,205.08a21.35,21.35,0,0,0-4.4,12.17L0,211.68Z"/><path class="cls-5" d="M-11.4,196.59a21.49,21.49,0,0,0-17.06,8.49L0,211.68l8.55-1.45A21.57,21.57,0,0,0-11.4,196.59Z"/><polygon class="cls-4" points="297.28 281.8 254.98 281.8 254.98 306.96 298 299.68 298 280.71 297.28 280.54 297.28 281.8"/><polygon class="cls-5" points="254.98 354.1 298 358.11 298 299.68 254.98 306.96 254.98 354.1"/><polygon class="cls-5" points="297.28 280.54 297.28 213.04 254.98 221.34 254.98 270.74 297.28 280.54"/><path class="cls-4" d="M276.49,196.59A21.57,21.57,0,0,0,255,218.1v3.24l42.3-8.3v-.33A21.57,21.57,0,0,0,276.49,196.59Z"/><polygon class="cls-5" points="254.98 281.8 297.28 281.8 297.28 280.54 254.98 270.74 254.98 281.8"/></g>
  <g class="cls-7"><rect class="cls-8" x="306.09" y="198.63" width="85.73" height="406.39" rx="42.87" ry="42.87" transform="translate(140.54 -87.86) rotate(17.92)"/></g>
  <g class="cls-9"><path d="M107.82,22.58A30.21,30.21,0,0,1,97.27,69.95,30.2,30.2,0,1,0,131.76,118a49.66,49.66,0,1,0-23.95-95.43Z"/><polygon class="cls-10" points="173.53 285.43 89.1 285.43 28.01 185.65 234.63 185.65 173.53 285.43"/><polygon class="cls-10" points="173.53 285.43 89.1 285.43 -6.29 639.03 268.92 639.03 173.53 285.43"/><ellipse class="cls-11" cx="131.32" cy="160.24" rx="32.84" ry="101.27"/><ellipse class="cls-11" cx="99.44" cy="134.5" rx="13.66" ry="18.22"/><ellipse class="cls-11" cx="163.19" cy="134.5" rx="13.66" ry="18.22"/><path d="M143,48.24A44.77,44.77,0,0,1,98.24,93l9-19.38,19-19.81Z"/><circle class="cls-10" cx="116.33" cy="127.5" r="6.46"/><circle class="cls-10" cx="146.05" cy="127.5" r="6.46"/><rect class="cls-12" x="127.96" y="112.85" width="6.03" height="87.44"/><rect x="128.5" y="90.35" width="6.03" height="42.86" transform="translate(243.29 -19.73) rotate(90)"/><polygon class="cls-13" points="118.43 263 112.34 212.48 124.52 212.48 118.43 263"/><polygon class="cls-13" points="144.71 263 138.62 212.48 150.8 212.48 144.71 263"/><rect class="cls-14" x="128.5" y="191.14" width="6.03" height="42.86" transform="translate(344.08 81.06) rotate(90)"/><path class="cls-15" d="M148.09,286.38a2.51,2.51,0,1,1-5,.13c0-1.57.9-8.55,2.27-8.59S148.06,284.81,148.09,286.38Z"/></g>
</svg>
