<svg xmlns="http://www.w3.org/2000/svg" viewBox="0 0 148.65 111.37"><defs><style>.cls-1{fill:#00a797;}.cls-2{fill:#3077ac;}.cls-3{fill:#fff;}</style></defs><title>Asset 2</title><g id="Layer_2" data-name="Layer 2"><g id="Слой_1" data-name="Слой 1"><polygon class="cls-1" points="140.37 111.36 8.28 111.36 35.85 2.94 112.8 2.94 140.37 111.36"/><rect class="cls-1" y="0.31" width="148.65" height="22.74"/><path class="cls-2" d="M108,.31H40.66C49.78,28.06,63.54,33,74.33,15.21,85.11,33,98.87,28.06,108,.31Z"/><circle class="cls-3" cx="12.71" cy="7.43" r="3.06"/><circle class="cls-3" cx="30.92" cy="7" r="3.06"/><circle class="cls-3" cx="21.89" cy="15.45" r="3.06"/><circle class="cls-3" cx="40.83" cy="22.74" r="3.06"/><circle class="cls-3" cx="37.04" cy="41.39" r="3.06"/><circle class="cls-3" cx="53.66" cy="35.27" r="3.06"/><circle class="cls-3" cx="73.77" cy="34.4" r="3.06"/><circle class="cls-3" cx="74.94" cy="52.76" r="3.06"/><circle class="cls-3" cx="55.41" cy="53.34" r="3.06"/><circle class="cls-3" cx="68.23" cy="75.2" r="3.06"/><circle class="cls-3" cx="40.25" cy="75.2" r="3.06"/><circle class="cls-3" cx="29.76" cy="97.36" r="3.06"/><circle class="cls-3" cx="56.57" cy="95.03" r="3.06"/><circle class="cls-3" cx="56.28" cy="74.62" r="3.06"/><circle class="cls-3" cx="83.68" cy="94.15" r="3.06"/><circle class="cls-3" cx="95.34" cy="61.5" r="3.06"/><circle class="cls-3" cx="114.87" cy="75.79" r="3.06"/><circle class="cls-3" cx="98.55" cy="85.7" r="3.06"/><circle class="cls-3" cx="123.03" cy="99.69" r="3.06"/><circle class="cls-3" cx="109.92" cy="55.67" r="3.06"/><circle class="cls-3" cx="92.14" cy="40.81" r="3.06"/><circle class="cls-3" cx="104.38" cy="25.94" r="3.06"/><circle class="cls-3" cx="118.08" cy="9.91" r="3.06"/><circle class="cls-3" cx="134.69" cy="15.45" r="3.06"/><circle class="cls-3" cx="140.82" cy="7" r="3.06"/><path class="cls-3" d="M58.28,0A22.72,22.72,0,0,0,90.43,0"/></g></g></svg>