<svg xmlns="http://www.w3.org/2000/svg" viewBox="0 0 133.15 134.33"><defs><style>.cls-1{fill:#fff;stroke:#010101;stroke-miterlimit:10;stroke-width:0.23px;}.cls-2{fill:#efe63f;}.cls-3{fill:#cfcecd;}</style></defs><title>Asset 1</title><g id="Layer_2" data-name="Layer 2"><g id="Слой_1" data-name="Слой 1"><ellipse class="cls-1" cx="26.43" cy="84.37" rx="25.25" ry="39.09"/><circle class="cls-2" cx="26.43" cy="95.09" r="15.22"/><path class="cls-3" d="M15.71,77.81,25.9,54.65,37,74.11l6.48-17.6L60.14,69.9q0-1.59,0-3.2C60.17,29.86,46.69,0,30.07,0,14,0,.79,28.05,0,63.32L10.15,52.8Z"/><path class="cls-3" d="M54.87,92.81,73.36,96l-17.1,14.48,24.63,5.79-23.57,10,12.19,8.06q1.66-.27,3.33-.58C109.05,127,136,108.32,132.91,92,130,76.1,99.89,68.29,65,74Z"/></g></g></svg>