<svg xmlns="http://www.w3.org/2000/svg" viewBox="0 0 32.49 121.17"><defs><style>.cls-1{fill:#6fc055;}</style></defs><title>Asset 1</title><g id="Layer_2" data-name="Layer 2"><g id="Слой_1" data-name="Слой 1"><path class="cls-1" d="M8.12,85.65c0,6.74-.82,8-1.82,8s-1.82-1.26-1.82-8A42.85,42.85,0,0,1,6.3,73.45,42.85,42.85,0,0,1,8.12,85.65Z"/><path class="cls-1" d="M17.74,57.14c0,6.74-.82,8-1.82,8s-1.82-1.26-1.82-8a42.85,42.85,0,0,1,1.82-12.2A42.85,42.85,0,0,1,17.74,57.14Z"/><path class="cls-1" d="M27.68,88.3c0,6.74-.82,8-1.82,8S24,95,24,88.3a42.85,42.85,0,0,1,1.82-12.2A42.85,42.85,0,0,1,27.68,88.3Z"/><path class="cls-1" d="M27.68,113.17c0,6.74-.82,8-1.82,8s-1.82-1.26-1.82-8A42.85,42.85,0,0,1,25.86,101,42.85,42.85,0,0,1,27.68,113.17Z"/><path class="cls-1" d="M1.46,0A233.82,233.82,0,0,0,0,27.35c0,23.9,2.89,43.27,6.47,43.27,3.09,0,5.67-14.51,6.31-33.91C10.9,29.24,9.64,15.61,9.62,0Z"/><path class="cls-1" d="M21.28,0h-9.8a233.79,233.79,0,0,1,1.46,27.35c0,3.21-.05,6.34-.15,9.35,1,3.85,2.1,6.06,3.3,6.06s2.53-2.62,3.55-7.1q-.07-3.1-.07-6.32A224.61,224.61,0,0,1,21.28,0Z"/><path class="cls-1" d="M11.47,0H9.62c0,15.61,1.29,29.24,3.16,36.71.1-3,.15-6.14.15-9.35A233.79,233.79,0,0,0,11.47,0Z"/><path class="cls-1" d="M22.54,0c0,14.91-1.18,28-2.91,35.66.46,20.9,3.15,36.94,6.4,36.94,3.57,0,6.47-19.37,6.47-43.27A224.61,224.61,0,0,0,30.78,0Z"/><path class="cls-1" d="M21.28,0a224.61,224.61,0,0,0-1.71,29.34q0,3.22.07,6.32C21.37,28,22.52,14.91,22.54,0Z"/></g></g></svg>