<svg xmlns="http://www.w3.org/2000/svg" viewBox="0 0 112.4 76.69"><defs><style>.cls-1{fill:#f7decb;}.cls-2{fill:#fff;stroke:#f24943;stroke-miterlimit:10;stroke-width:3.01px;}</style></defs><title>Asset 5</title><g id="Layer_2" data-name="Layer 2"><g id="Слой_1" data-name="Слой 1"><polygon points="100.13 20.07 112.4 13.25 98.85 9.56 109.13 0 3.27 0 13.55 9.56 0 13.25 12.27 20.07 0 26.9 13.55 30.59 3.27 40.15 17.3 40.49 9.61 52.23 23.32 49.2 18.66 62.45 31.25 56.23 29.89 70.2 40.62 61.15 42.65 75.04 50.91 63.68 56.2 76.69 61.49 63.68 69.75 75.04 71.78 61.15 82.51 70.2 81.15 56.23 93.74 62.45 89.08 49.2 102.79 52.23 95.09 40.49 109.13 40.15 98.85 30.59 112.4 26.9 100.13 20.07"/><path class="cls-1" d="M23.67,12.6c6.43,20.94,18.52,35,32.37,35S82,33.53,88.4,12.6Z"/><path class="cls-2" d="M52.92,26.93c4.54,5.3,9.86,7.89,13.91,6.13s5.79-7.42,5-14.35Z"/></g></g></svg>